# xmcd
#
# Track frame offsets:
#	150
#	16493
#	31498
#	45492
#	64556
#	77049
#	89568
#	103501
#	118212
#	136740
#	152264
#	163695
#	174862
#	189275
#	201727
#
# Disc length: 2876 seconds
#
# Revision: 1
# Processed by: cddbd v1.5.2PL0 Copyright (c) Steve Scherf et al.
# Submitted via: audiograbber 1.83.01
#
DISCID=bc0b3a0f
DTITLE=Various Artist - Pista Sertaneja Remixes
DYEAR=1900
DGENRE=Sertanejo Universitario
TTITLE0=Jorge and Mateus - Amo noite e dia
TTITLE1=Luan Santana - Meteoro
TTITLE2=Fernando and Sorocaba - Paga pau
TTITLE3=Gustavo Lima - Inventor dos amores
TTITLE4=Michel Teló - Fugidinha
TTITLE5=Maria Cecilia and Rodolfo - Tchau, tchau
TTITLE6=Hugo Pena and Gabriel - Quatro estações
TTITLE7=Munhoz and Mariano - Sonho bom
TTITLE8=Adair Cardoso - Que se dane o mundo
TTITLE9=João Neto and Frederico - Chora
TTITLE10=Humberto and Ronaldo - Tô vendendo beijo
TTITLE11=Jeann and Julio - Baladeira
TTITLE12=Adson and Alana - Usou e abusou
TTITLE13=Henrique and Diego - Top do verão
TTITLE14=Tato and Reis - Cachaceiro
EXTD=
EXTT0=
EXTT1=
EXTT2=
EXTT3=
EXTT4=
EXTT5=
EXTT6=
EXTT7=
EXTT8=
EXTT9=
EXTT10=
EXTT11=
EXTT12=
EXTT13=
EXTT14=
PLAYORDER=
